HIERARCHY
ROOT hip
{
	OFFSET 0.000000 0.000000 0.000000 
	CHANNELS 6 Xposition Yposition Zposition Xrotation Zrotation Yrotation
	JOINT abdomen
	{
		OFFSET 0.000000 3.402643 0.000000 
		CHANNELS 3 Xrotation Zrotation Yrotation
		JOINT chest
		{
			OFFSET 0.000000 8.438565 -0.680529 
			CHANNELS 3 Xrotation Zrotation Yrotation
			JOINT neck
			{
				OFFSET 0.000000 10.207942 -0.272212 
				CHANNELS 3 Xrotation Zrotation Yrotation
				JOINT head
				{
					OFFSET 0.000000 3.130431 0.000000 
					CHANNELS 3 Xrotation Zrotation Yrotation
					End Site
					{
						OFFSET 0.000000 3.130435 0.000000 
					}
				}
			}
			JOINT lCollar
			{
				OFFSET 3.470700 6.669187 -0.816635 
				CHANNELS 3 Yrotation Zrotation Xrotation
				JOINT lShldr
				{
					OFFSET 3.198488 0.000000 0.000000 
					CHANNELS 3 Zrotation Yrotation Xrotation
					JOINT lForeArm
					{
						OFFSET 10.139888 0.000000 0.000000 
						CHANNELS 3 Yrotation Zrotation Xrotation
						JOINT lHand
						{
							OFFSET 8.370511 0.000000 0.000000 
							CHANNELS 3 Zrotation Yrotation Xrotation
							End Site
							{
								OFFSET 4.083176 0.000000 0.000000 
							}
						}
					}
				}
			}
			JOINT rCollar
			{
				OFFSET -3.470700 6.669187 -0.816635 
				CHANNELS 3 Yrotation Zrotation Xrotation
				JOINT rShldr
				{
					OFFSET -3.198488 0.000000 0.000000 
					CHANNELS 3 Zrotation Yrotation Xrotation
					JOINT rForeArm
					{
						OFFSET -10.139888 0.000000 0.000000 
						CHANNELS 3 Yrotation Zrotation Xrotation
						JOINT rHand
						{
							OFFSET -8.370511 0.000000 0.000000 
							CHANNELS 3 Zrotation Yrotation Xrotation
							End Site
							{
								OFFSET -4.083176 0.000000 0.000000 
							}
						}
					}
				}
			}
		}
	}
	JOINT lThigh
	{
		OFFSET 5.308129 -1.633274 1.361059 
		CHANNELS 3 Xrotation Zrotation Yrotation
		JOINT lShin
		{
			OFFSET -2.041588 -20.007561 0.000000 
			CHANNELS 3 Xrotation Zrotation Yrotation
			JOINT lFoot
			{
				OFFSET 0.000000 -19.190928 -1.224953 
				CHANNELS 3 Xrotation Yrotation Zrotation
				End Site
				{
					OFFSET 0.000000 -2.449906 4.627600 
				}
			}
		}
	}
	JOINT rThigh
	{
		OFFSET -5.308129 -1.633274 1.361059 
		CHANNELS 3 Xrotation Zrotation Yrotation
		JOINT rShin
		{
			OFFSET 2.041588 -20.007561 0.000000 
			CHANNELS 3 Xrotation Zrotation Yrotation
			JOINT rFoot
			{
				OFFSET 0.000000 -19.190928 -1.224953 
				CHANNELS 3 Xrotation Yrotation Zrotation
				End Site
				{
					OFFSET 0.000000 -2.449906 4.627600 
				}
			}
		}
	}
}
MOTION
Frames: 11
Frame Time: 0.041667
-0.372726 54.116508 1.138405 -1.666667 -0.333333 -0.833333 4.700394 -0.668957 -0.426130 0.803868 -0.786924 -0.315621 -2.149134 0.124872 -0.048619 3.846555 1.253236 -2.232652 2.485964 -6.009744 -0.047941 -66.128555 9.674990 15.288389 -30.876104 -6.317351 4.551177 4.900933 4.825302 -0.684181 -2.426141 6.970276 -0.200731 63.517384 -10.399952 15.774399 35.281979 4.849810 9.131554 -10.008048 -2.165049 0.011348 -3.554211 5.681088 0.032379 23.381083 -3.131009 -1.794263 -6.003067 4.552963 -2.320280 -1.673201 -4.237778 0.393846 9.654884 2.712913 0.204272 -6.734401 -1.118138 1.770259 
-1.146965 49.833580 -0.076835 -2.500000 -0.500000 -1.250000 10.088996 -1.450606 -0.934996 1.785540 -1.714274 -0.689683 -4.662945 0.280278 -0.106858 8.238412 2.724675 -4.845828 3.035456 -6.400090 -0.030064 -61.504967 9.324522 14.451381 -40.612190 -2.890040 9.613650 3.712631 10.492804 -1.622994 -2.830363 8.250243 -0.338111 56.934067 -10.821134 15.557198 48.048359 0.395880 18.115372 -14.046606 -4.503211 -0.153038 -13.891198 9.147067 -0.648781 55.816055 -3.281751 -4.979294 -14.675887 6.409758 -3.383505 -19.458065 -4.967305 0.792151 45.827076 3.480870 3.650974 -24.237238 -1.439078 0.618904 
-1.921205 45.550648 -1.292074 -3.333333 -0.666667 -1.666667 12.984676 -2.020945 -1.415780 2.938310 -2.469511 -1.015334 -6.522551 0.487196 -0.163424 10.390551 3.867744 -6.795392 3.509169 -6.855984 -0.018314 -58.308418 9.113690 13.687220 -47.387863 -1.011139 12.479539 3.448441 12.898082 -1.648131 -3.234584 9.530210 -0.475492 50.350750 -11.242315 15.339997 60.814739 -4.058051 27.099188 -18.085165 -6.841372 -0.317424 -17.526237 12.963726 -2.393932 76.494812 -3.083917 -7.013905 -18.390661 6.926300 -4.746644 -30.281996 -5.483248 1.097307 67.018280 3.324117 5.777417 -33.744972 -1.064265 -0.283648 
-2.280888 44.341003 -1.744298 -2.416667 -1.458333 -2.083333 10.980399 -2.134743 -1.775893 3.912389 -2.859065 -1.214413 -6.964695 0.762722 -0.210062 8.566289 4.264564 -7.299421 3.779055 -7.363311 -0.019886 -57.805885 9.118335 13.111905 -48.832256 -1.740446 11.446263 5.068407 9.018550 -0.051710 -3.708060 10.002029 -0.487393 45.915691 -11.941974 15.070928 73.292091 -8.150496 31.716364 -23.681023 -1.758053 -0.192127 -19.745682 15.176959 -3.955580 78.411934 -3.289745 -7.256133 -26.223724 11.334353 -6.697815 -34.265083 -5.449233 0.781949 71.670082 3.087595 6.205225 -35.261292 -0.439164 0.055795 
-2.640573 43.131359 -2.196524 -1.500000 -2.250000 -2.500000 5.551917 -1.851941 -1.898868 2.609085 -3.088631 -1.275286 -6.196133 1.029757 -0.238380 6.042913 3.936524 -6.556760 3.782755 -7.726855 -0.035542 -57.930721 8.939747 12.616030 -50.582470 -1.949995 10.042350 8.714964 0.822100 2.202845 -4.181535 10.473849 -0.499294 41.480633 -12.641632 14.801858 85.769440 -12.242940 36.333542 -29.276880 3.325265 -0.066829 -22.004969 16.770138 -6.080486 80.324394 -3.082322 -7.420476 -33.730991 16.998861 -9.001249 -38.165840 -5.556025 0.341288 76.114128 2.854153 6.591580 -36.619743 0.339172 0.405151 
-0.976725 46.007393 -2.249506 -3.583333 -3.041667 -2.916667 -0.854310 -1.308776 -1.662274 -2.350867 -3.463723 -1.202957 -4.666123 1.187652 -0.239956 6.357864 3.014836 -5.011447 3.474331 -7.706126 -0.064437 -55.782879 8.060583 12.033834 -60.277592 2.535120 13.104097 14.326142 -8.475746 3.734278 -4.655011 10.945669 -0.511196 37.045574 -13.341290 14.532789 98.246796 -16.335384 40.950718 -34.872738 8.408584 0.058469 -13.750079 15.343016 -3.328361 67.376930 -3.589897 -6.163542 -34.159210 22.577066 -7.211896 -30.044739 -7.638574 1.671524 64.153320 3.455124 5.505519 -30.902292 1.037094 4.329533 
0.687122 48.883423 -2.302487 -5.666667 -3.833333 -3.333333 -5.791828 -0.641483 -0.943677 -7.720140 -4.289855 -1.002426 -2.823926 1.135757 -0.206367 9.075212 1.630712 -3.107524 2.807844 -7.060632 -0.105723 -48.462292 5.963498 11.199556 -85.556702 15.889803 25.467804 21.839970 -15.659477 3.161338 -5.128487 11.417488 -0.523097 32.610516 -14.040948 14.263720 110.724144 -20.427830 45.567894 -40.468597 13.491902 0.183766 -4.487936 13.437132 -2.182448 51.982243 -3.974010 -4.579887 -33.658775 28.933132 -5.599838 -20.458042 -9.809564 1.462287 49.334400 3.854198 4.016857 -23.734125 2.593116 7.771296 
0.787502 50.379276 -3.023884 -6.833333 -5.416667 -4.166667 -7.533184 0.040859 -0.001564 -10.169692 -5.574418 -0.738569 -1.118800 0.773423 -0.129189 12.765682 -0.084636 -1.289029 1.901149 -5.828677 -0.151358 -35.833012 2.790301 10.132309 -125.771027 37.786728 47.128990 30.191685 -18.467316 0.095119 -3.881806 9.091841 -0.462730 29.880960 -9.205627 11.723578 115.945053 -27.373789 46.030186 -48.257034 17.292755 1.075180 -1.231968 14.831582 -2.152363 46.045444 -4.036475 -3.940492 -29.292912 30.040661 -6.237640 -15.849199 -8.748219 1.131524 40.866737 3.929649 3.141673 -18.695845 3.414722 8.638142 
0.887883 51.875130 -3.745278 -8.000000 -7.000000 -5.000000 -7.226944 0.737809 -0.618098 -10.670218 -6.132312 -0.715763 0.000000 0.000000 0.000000 16.000000 -2.000000 0.000000 1.527263 -5.163752 -0.164513 -28.815424 1.319412 9.590697 -147.120316 49.889675 58.720032 34.305332 -18.452423 -1.883892 -2.635126 6.766194 -0.402364 27.151405 -4.370308 9.183437 121.165955 -34.319748 46.492477 -56.045471 21.093607 1.966594 3.238062 16.343826 -1.564891 37.949352 -4.024486 -3.045332 -23.656784 30.903786 -7.174297 -9.330252 -7.533986 0.855792 28.350201 3.780839 1.846143 -11.531142 4.323492 9.596249 
1.572602 52.087116 -4.092362 -9.333333 -7.666667 -5.000000 -6.491006 1.372267 -4.132776 -10.896624 -4.986408 -1.160088 0.255591 -1.070595 0.160592 17.731363 -3.923648 0.454418 1.800313 -5.291774 -0.140830 -29.281757 2.020911 9.638293 -144.303528 49.347187 56.702042 34.263149 -17.664928 -1.765396 -2.614641 6.865102 -0.435272 27.186588 -3.044131 9.405931 117.912056 -32.595631 44.928631 -55.073914 19.693163 1.704413 4.693009 16.214567 -1.483818 37.341965 -4.017999 -2.964832 -23.401180 31.190874 -6.519069 -7.029481 -7.622205 0.634492 25.840677 3.679916 1.599622 -10.031932 4.806481 10.343753 
2.257321 52.299110 -4.439445 -10.666666 -8.333333 -5.000000 -5.944581 1.451864 -8.590727 -11.040908 -3.183972 -1.744924 0.060593 -1.466177 0.215848 18.442846 -5.421760 0.324647 2.073362 -5.419797 -0.117148 -29.748091 2.722410 9.685889 -141.486740 48.804699 54.684052 34.220966 -16.877434 -1.646901 -2.594157 6.964010 -0.468180 27.221771 -1.717954 9.628424 114.658157 -30.871513 43.364784 -54.102356 18.292719 1.442232 6.160197 16.084993 -1.306314 36.773640 -4.009575 -2.897469 -23.191568 31.427992 -5.866346 -4.597142 -7.701797 0.420253 23.073439 3.575673 1.310760 -8.377787 5.298153 11.071069 
